<svg width="512" height="512" viewBox="0 0 20 22" fill="none" xmlns="http://www.w3.org/2000/svg">
<path d="M15.5 21.6501L14.9 21.1501C12.9 19.2501 11.5 18.0501 11.5 16.5501C11.5 15.3501 12.5 14.3501 13.7 14.3501C14.4 14.3501 15.1 14.6501 15.5 15.1501C15.9 14.6501 16.6 14.3501 17.3 14.3501C18.5 14.3501 19.5 15.2501 19.5 16.5501C19.5 18.0501 18.1 19.2501 16.1 21.1501L15.5 21.6501Z" fill="#50B2C0"/>
<path d="M14.5 0.350098C15.6 0.350098 16.5 1.2501 16.5 2.3501V11.4301L15.5 11.3501L14.5 11.4301V2.3501H9.5V10.3501L7 8.1001L4.5 10.3501V2.3501H2.5V18.3501H9.58C9.7 19.0701 9.95 19.7401 10.3 20.3501H2.5C1.4 20.3501 0.5 19.4501 0.5 18.3501V2.3501C0.5 1.2501 1.4 0.350098 2.5 0.350098H14.5Z" fill="#8381D9"/>
</svg>
